<svg width="67" height="58" fill="none" xmlns="http://www.w3.org/2000/svg"><path d="m46.557 21.11-12.54-7.24a1.014 1.014 0 0 0-1.015 0l-12.54 7.24a1.015 1.015 0 0 0-.508.878v14.48c0 .362.194.697.508.879l12.54 7.24c.314.181.7.181 1.015 0l12.54-7.24c.314-.181.507-.516.507-.879v-14.48c0-.363-.193-.697-.507-.879Z" fill="#8080F2"/><path d="M.904 27.705 15.888 1.638C16.432.695 17.438 0 18.526 0h29.967c1.089 0 2.094.695 2.639 1.638l14.983 26.01a3.1 3.1 0 0 1 0 3.074L51.132 56.576c-.545.942-1.55 1.424-2.639 1.424H18.526c-1.088 0-2.094-.467-2.638-1.41L.905 30.694a2.94 2.94 0 0 1 0-2.99Zm12.407 12.534c0 .384.231.738.563.93L32.96 52.18c.332.192.748.192 1.08 0l19.1-11.011c.332-.192.564-.546.564-.93V18.216c0-.383-.229-.738-.56-.93L34.057 6.277a1.084 1.084 0 0 0-1.079 0l-19.102 11.01c-.332.192-.566.547-.566.93V40.24Z" fill="#4B32C3"/></svg>