<svg width="32" height="32" xmlns="http://www.w3.org/2000/svg" fill="none">
 <defs>
  <clipPath id="clip0_14_74">
   <rect id="svg_1" fill="white" height="45" width="45"/>
  </clipPath>
 </defs>
 <g>
  <g stroke="null" id="svg_3" clip-path="url(#clip0_14_74)">
   <path stroke="white" id="svg_4" stroke-width="0.5" fill="white" d="m29.4128,29.41293c1.22973,-1.22993 1.46173,-2.89328 1.3261,-4.33016c-0.13733,-1.45509 -0.67187,-3.03516 -1.4308,-4.61127c-0.68382,-1.42037 -1.59565,-2.93103 -2.69905,-4.47147c1.1034,-1.54044 2.01522,-3.0511 2.69905,-4.47147c0.75893,-1.5761 1.29347,-3.15619 1.4308,-4.61127c0.13563,-1.43687 -0.09636,-3.10026 -1.3261,-4.33009c-1.22973,-1.22981 -2.89328,-1.46166 -4.33016,-1.32604c-1.45509,0.13737 -3.03516,0.67185 -4.61127,1.43073c-1.42037,0.68385 -2.93103,1.5956 -4.47147,2.69901c-1.54025,-1.1034 -3.0511,-2.01515 -4.47128,-2.69901c-1.5761,-0.75888 -3.15619,-1.29336 -4.61146,-1.43073c-1.43669,-0.13563 -3.10021,0.09623 -4.33002,1.32604c-1.22983,1.22983 -1.46166,2.89322 -1.32604,4.33009c0.13736,1.45509 0.67183,3.03516 1.4307,4.61127c0.68388,1.42037 1.59562,2.93103 2.69895,4.47147c-1.10333,1.54044 -2.01507,3.0511 -2.69895,4.47147c-0.75888,1.5761 -1.29336,3.15619 -1.4307,4.61127c-0.13563,1.43687 0.09621,3.10023 1.32604,4.33016c1.22981,1.22973 2.89334,1.46153 4.33002,1.3259c1.45527,-0.13733 3.03536,-0.67167 4.61146,-1.43062c1.42018,-0.68382 2.93103,-1.59565 4.47128,-2.69905c1.54044,1.1034 3.0511,2.01522 4.47147,2.69905c1.5761,0.75893 3.15619,1.29328 4.61127,1.43062c1.43687,0.13563 3.10042,-0.09617 4.33016,-1.3259zm-13.4129,-5.59138c1.37427,-1.07438 2.77189,-2.30886 4.14218,-3.67934c1.37049,-1.37049 2.60515,-2.76809 3.67934,-4.14218c-1.07419,-1.37409 -2.30886,-2.77169 -3.67934,-4.14218c-1.37029,-1.37049 -2.76789,-2.60496 -4.14218,-3.67934c-1.37409,1.07438 -2.77169,2.30886 -4.14218,3.67934c-1.37049,1.37049 -2.60496,2.76809 -3.67915,4.14218c1.07419,1.37409 2.30867,2.77169 3.67915,4.14218c1.37049,1.37049 2.76809,2.60496 4.14218,3.67934zm1.86404,1.36954c1.29328,-1.04119 2.59035,-2.2051 3.85613,-3.47088c1.26577,-1.26577 2.42969,-2.56285 3.47106,-3.85613c3.0566,4.44605 4.23246,8.38185 2.64366,9.97086c-1.58881,1.58881 -5.5248,0.41276 -9.97086,-2.64384l0.00001,-0.00001zm-11.0551,-7.327c1.04119,1.29328 2.2051,2.59035 3.47088,3.85613c1.26577,1.26577 2.56285,2.42969 3.85632,3.47088c-4.44625,3.0566 -8.38204,4.23266 -9.97093,2.64384c-1.58887,-1.58901 -0.41285,-5.5248 2.64373,-9.97086l0,0.00001zm0,-3.72809c1.04119,-1.29328 2.2051,-2.59035 3.47088,-3.85613c1.26577,-1.26577 2.56285,-2.42969 3.85632,-3.47088c-4.44625,-3.05664 -8.38204,-4.23267 -9.97093,-2.6438c-1.58887,1.58897 -0.41285,5.52476 2.64373,9.97082l0,-0.00001zm11.0551,-7.327c1.29328,1.04119 2.59035,2.2051 3.85613,3.47088c1.26577,1.26577 2.42969,2.56285 3.47106,3.85613c3.0566,-4.44605 4.23246,-8.38185 2.64366,-9.97082c-1.58881,-1.58887 -5.5248,-0.41284 -9.97086,2.6438l0.00001,0.00001z" clip-rule="evenodd" fill-rule="evenodd"/>
  </g>
 </g>
</svg>